<svg width="50" height="50" viewBox="0 0 50 50" fill="none" xmlns="http://www.w3.org/2000/svg">
<g clip-path="url(#clip0_10_28)">
<path d="M8.8543 0.625H41.1457C46.0418 0.625 50 4.5832 50 9.4793V40.5207C50 45.4168 46.0418 49.375 41.1457 49.375H8.8543C3.9582 49.375 0 45.4168 0 40.5207V9.4793C0 4.5832 3.9582 0.625 8.8543 0.625Z" fill="#470137"/>
<path d="M26.2918 13.4375L20.0418 23.75L26.7082 34.6875C26.75 34.7707 26.7707 34.8543 26.75 34.9375C26.7293 35.0207 26.6457 34.9582 26.5207 34.9793H21.75C21.4168 34.9793 21.1875 34.9582 21.0418 34.75C20.6043 33.875 20.1457 33.0207 19.7082 32.1457C19.2707 31.2918 18.7918 30.4168 18.2918 29.5207C17.7918 28.6246 17.2918 27.7293 16.7918 26.8125H16.75C16.3125 27.7082 15.8332 28.6043 15.3543 29.5C14.8782 30.3869 14.4059 31.2758 13.9375 32.1668C13.4582 33.0418 12.9793 33.9375 12.5 34.7918C12.4168 35 12.25 35.0207 12.0207 35.0207H7.43747C7.35427 35.0207 7.29177 35.0625 7.29177 34.9582C7.28244 34.9193 7.2813 34.8788 7.28843 34.8394C7.29556 34.8 7.31079 34.7625 7.33318 34.7293L13.8125 24.1043L7.49997 13.4168C7.43747 13.3332 7.41677 13.25 7.45818 13.2082C7.49997 13.1457 7.58318 13.125 7.66677 13.125H12.3957C12.5 13.125 12.6043 13.1457 12.6875 13.1668C12.7707 13.2082 12.8332 13.2707 12.8957 13.3543C13.2918 14.25 13.75 15.1457 14.2293 16.0418C14.7293 16.9375 15.2082 17.8125 15.7293 18.6875C16.2293 19.5625 16.6875 20.4375 17.125 21.3332H17.1668C17.6043 20.4168 18.0625 19.5207 18.5207 18.6457C18.9789 17.7707 19.4582 16.8957 19.9375 16.0207C20.4168 15.1457 20.875 14.25 21.3332 13.3957C21.3543 13.3125 21.3957 13.2293 21.4582 13.1875C21.5418 13.1457 21.625 13.125 21.7293 13.1457H26.125C26.1496 13.1401 26.1751 13.1395 26.2 13.1438C26.225 13.1482 26.2487 13.1574 26.2701 13.171C26.2914 13.1845 26.3098 13.2022 26.3243 13.223C26.3387 13.2437 26.3489 13.2671 26.3543 13.2918C26.375 13.3125 26.3332 13.3957 26.2918 13.4375ZM35.9168 35.4168C34.375 35.4375 32.8332 35.125 31.4375 34.4793C30.125 33.875 29.0418 32.875 28.2918 31.6457C27.5207 30.375 27.1457 28.7918 27.1457 26.8957C27.125 25.3543 27.5207 23.8332 28.2918 22.5C29.0832 21.1457 30.2293 20.0207 31.6043 19.2707C33.0625 18.4582 34.8125 18.0625 36.875 18.0625C36.9793 18.0625 37.125 18.0625 37.3125 18.0832C37.5 18.1043 37.7082 18.1043 37.9582 18.125V11.5418C37.9582 11.3957 38.0207 11.3125 38.1668 11.3125H42.3957C42.5 11.2918 42.5832 11.375 42.6043 11.4582V31.3332C42.6043 31.7082 42.625 32.125 42.6457 32.5832C42.6875 33.0207 42.7082 33.4375 42.7293 33.7918C42.7293 33.9375 42.6668 34.0625 42.5207 34.125C41.4295 34.5837 40.2906 34.9191 39.125 35.125C38.0625 35.3125 37 35.4168 35.9168 35.4168ZM37.9582 31.25V22.0832C37.7707 22.0418 37.5832 22 37.3957 21.9793C37.1673 21.9547 36.9379 21.9408 36.7082 21.9375C35.8957 21.9375 35.0832 22.1043 34.3543 22.4793C33.6423 22.834 33.0327 23.3645 32.5832 24.0207C32.125 24.6875 31.8957 25.5832 31.8957 26.6668C31.8779 27.3979 31.9981 28.1259 32.25 28.8125C32.4582 29.375 32.7707 29.875 33.1875 30.2918C33.589 30.6752 34.074 30.9604 34.6043 31.125C35.1668 31.3125 35.75 31.3957 36.3332 31.3957C36.6457 31.3957 36.9375 31.375 37.2082 31.3543C37.4793 31.375 37.7082 31.3332 37.9582 31.25Z" fill="#FF61F6"/>
</g>
<defs>
<clipPath id="clip0_10_28">
<rect width="50" height="50" fill="white"/>
</clipPath>
</defs>
</svg>
