<svg width="40" height="40" viewBox="0 0 40 40" fill="none" xmlns="http://www.w3.org/2000/svg">
<path d="M35 8.75708C33.472 7.21362 31.6519 5.98986 29.646 5.15717C27.6401 4.32447 25.4885 3.89952 23.3166 3.90708C14.2166 3.90708 6.79996 11.3237 6.79996 20.4237C6.79996 23.3404 7.56663 26.1737 8.99996 28.6737L6.66663 37.2404L15.4166 34.9404C17.8333 36.2571 20.55 36.9571 23.3166 36.9571C32.4166 36.9571 39.8333 29.5404 39.8333 20.4404C39.8333 16.0237 38.1166 11.8737 35 8.75708ZM23.3166 34.1571C20.85 34.1571 18.4333 33.4904 16.3166 32.2404L15.8166 31.9404L10.6166 33.3071L12 28.2404L11.6666 27.7237C10.2962 25.5354 9.56853 23.0058 9.56663 20.4237C9.56663 12.8571 15.7333 6.69042 23.3 6.69042C26.9666 6.69042 30.4166 8.12375 33 10.7237C34.2791 11.997 35.2928 13.5115 35.9823 15.1795C36.6718 16.8474 37.0233 18.6356 37.0166 20.4404C37.05 28.0071 30.8833 34.1571 23.3166 34.1571ZM30.85 23.8904C30.4333 23.6904 28.4 22.6904 28.0333 22.5404C27.65 22.4071 27.3833 22.3404 27.1 22.7404C26.8166 23.1571 26.0333 24.0904 25.8 24.3571C25.5666 24.6404 25.3166 24.6737 24.9 24.4571C24.4833 24.2571 23.15 23.8071 21.5833 22.4071C20.35 21.3071 19.5333 19.9571 19.2833 19.5404C19.05 19.1237 19.25 18.9071 19.4666 18.6904C19.65 18.5071 19.8833 18.2071 20.0833 17.9737C20.2833 17.7404 20.3666 17.5571 20.5 17.2904C20.6333 17.0071 20.5666 16.7737 20.4666 16.5737C20.3666 16.3737 19.5333 14.3404 19.2 13.5071C18.8666 12.7071 18.5166 12.8071 18.2666 12.7904H17.4666C17.1833 12.7904 16.75 12.8904 16.3666 13.3071C16 13.7237 14.9333 14.7237 14.9333 16.7571C14.9333 18.7904 16.4166 20.7571 16.6166 21.0237C16.8166 21.3071 19.5333 25.4737 23.6666 27.2571C24.65 27.6904 25.4166 27.9404 26.0166 28.1237C27 28.4404 27.9 28.3904 28.6166 28.2904C29.4166 28.1737 31.0666 27.2904 31.4 26.3237C31.75 25.3571 31.75 24.5404 31.6333 24.3571C31.5166 24.1737 31.2666 24.0904 30.85 23.8904Z" fill="white"/>
</svg>
