<svg width="40" height="40" viewBox="0 0 40 40" fill="none" xmlns="http://www.w3.org/2000/svg">
<path d="M20 10.8333C21.1051 10.8333 22.1649 11.2722 22.9463 12.0536C23.7277 12.835 24.1667 13.8948 24.1667 14.9999C24.1667 15.5471 24.0589 16.0889 23.8495 16.5944C23.6401 17.1 23.3332 17.5593 22.9463 17.9462C22.5594 18.3331 22.1001 18.64 21.5946 18.8494C21.089 19.0588 20.5472 19.1666 20 19.1666C18.895 19.1666 17.8352 18.7276 17.0538 17.9462C16.2724 17.1648 15.8334 16.105 15.8334 14.9999C15.8334 13.8948 16.2724 12.835 17.0538 12.0536C17.8352 11.2722 18.895 10.8333 20 10.8333ZM20 3.33325C23.0942 3.33325 26.0617 4.56241 28.2496 6.75034C30.4375 8.93826 31.6667 11.9057 31.6667 14.9999C31.6667 23.7499 20 36.6666 20 36.6666C20 36.6666 8.33337 23.7499 8.33337 14.9999C8.33337 11.9057 9.56254 8.93826 11.7505 6.75034C13.9384 4.56241 16.9058 3.33325 20 3.33325ZM20 6.66659C17.7899 6.66659 15.6703 7.54456 14.1075 9.10736C12.5447 10.6702 11.6667 12.7898 11.6667 14.9999C11.6667 16.6666 11.6667 19.9999 20 31.1832C28.3334 19.9999 28.3334 16.6666 28.3334 14.9999C28.3334 12.7898 27.4554 10.6702 25.8926 9.10736C24.3298 7.54456 22.2102 6.66659 20 6.66659Z" fill="white"/>
</svg>
